{
  "source": "C:\\Users\\Peter\\Desktop\\stuff\\MIUN\\quantitative_research\\video_compression\\videos\\UVG\\ReadySteadyGo_1920x1080_120fps_420_8bit_YUV.y4m",
  "output": "C:\\Users\\Peter\\Desktop\\stuff\\MIUN\\quantitative_research\\video_compression\\compressed_videos\\UVG\\h264\\12\\ReadySteadyGo_1920x1080_120fps_420_8bit_YUV_h264.mp4",
  "codec": "h264",
  "ok": "[yuv4mpegpipe @ 00000239c47b5f80] Stream #0: not enough frames to estimate rate; consider increasing probesize\nInput #0, yuv4mpegpipe, from 'C:\\Users\\Peter\\Desktop\\stuff\\MIUN\\quantitative_research\\video_compression\\videos\\UVG\\ReadySteadyGo_1920x1080_120fps_420_8bit_YUV.y4m':\n  Duration: 00:00:05.00, start: 0.000000, bitrate: 2985989 kb/s\n  Stream #0:0: Video: rawvideo (I420 / 0x30323449), yuv420p(progressive), 1920x1080, 120 fps, 120 tbr, 120 tbn\n[out#0/mp4 @ 00000239c47b9e40] Codec AVOption b:a (set bitrate (in bits/s)) has not been used for any stream. The most likely reason is either wrong type (e.g. a video option with no video streams) or that it is a private option of some decoder which was not actually used for any stream.\nStream mapping:\n  Stream #0:0 -> #0:0 (rawvideo (native) -> h264 (libx264))\nPress [q] to stop, [?] for help\n[libx264 @ 00000239c47bcec0] using cpu capabilities: MMX2 SSE2Fast SSSE3 SSE4.2 AVX FMA3 BMI2 AVX2\n[libx264 @ 00000239c47bcec0] profile High, level 5.1, 4:2:0, 8-bit\n[libx264 @ 00000239c47bcec0] 264 - core 165 r3222 b35605a - H.264/MPEG-4 AVC codec - Copyleft 2003-2025 - http://www.videolan.org/x264.html - options: cabac=1 ref=5 deblock=1:0:0 analyse=0x3:0x113 me=hex subme=8 psy=1 psy_rd=1.00:0.00 mixed_ref=1 me_range=16 chroma_me=1 trellis=2 8x8dct=1 cqm=0 deadzone=21,11 fast_pskip=1 chroma_qp_offset=-2 threads=18 lookahead_threads=3 sliced_threads=0 nr=0 decimate=1 interlaced=0 bluray_compat=0 constrained_intra=0 bframes=3 b_pyramid=2 b_adapt=1 b_bias=0 direct=3 weightb=1 open_gop=0 weightp=2 keyint=250 keyint_min=25 scenecut=40 intra_refresh=0 rc_lookahead=50 rc=cbr mbtree=1 bitrate=12000 ratetol=1.0 qcomp=0.60 qpmin=0 qpmax=69 qpstep=4 vbv_maxrate=12000 vbv_bufsize=12000 nal_hrd=none filler=0 ip_ratio=1.40 aq=1:1.00\nOutput #0, mp4, to 'C:\\Users\\Peter\\Desktop\\stuff\\MIUN\\quantitative_research\\video_compression\\compressed_videos\\UVG\\h264\\12\\ReadySteadyGo_1920x1080_120fps_420_8bit_YUV_h264.mp4':\n  Metadata:\n    encoder         : Lavf62.3.100\n  Stream #0:0: Video: h264 (avc1 / 0x31637661), yuv420p(tv, progressive), 1920x1080, q=2-31, 12000 kb/s, 120 fps, 15360 tbn\n    Metadata:\n      encoder         : Lavc62.11.100 libx264\n    Side data:\n      cpb: bitrate max/min/avg: 12000000/0/12000000 buffer size: 12000000 vbv_delay: N/A\nframe=    0 fps=0.0 q=0.0 size=       0KiB time=N/A bitrate=N/A speed=N/A elapsed=0:00:02.04    \nframe=    0 fps=0.0 q=0.0 size=       0KiB time=N/A bitrate=N/A speed=N/A elapsed=0:00:02.67    \nframe=    0 fps=0.0 q=0.0 size=       0KiB time=N/A bitrate=N/A speed=N/A elapsed=0:00:03.34    \nframe=    0 fps=0.0 q=0.0 size=       0KiB time=N/A bitrate=N/A speed=N/A elapsed=0:00:04.11    \nframe=    9 fps=1.9 q=33.0 size=       0KiB time=00:00:00.05 bitrate=   6.6kbits/s speed=0.0121x elapsed=0:00:04.80    \nframe=   32 fps=5.9 q=31.0 size=     256KiB time=00:00:00.21 bitrate=9680.9kbits/s speed=0.0397x elapsed=0:00:05.46    \nframe=   45 fps=7.4 q=31.0 size=     256KiB time=00:00:00.32 bitrate=6454.0kbits/s speed=0.0532x elapsed=0:00:06.11    \nframe=   57 fps=8.3 q=31.0 size=     512KiB time=00:00:00.45 bitrate=9152.1kbits/s speed=0.0664x elapsed=0:00:06.89    \nframe=   67 fps=8.8 q=31.0 size=     512KiB time=00:00:00.52 bitrate=7989.9kbits/s speed=0.0692x elapsed=0:00:07.58    \nframe=   76 fps=9.3 q=31.0 size=     768KiB time=00:00:00.61 bitrate=10203.0kbits/s speed=0.0757x elapsed=0:00:08.15    \nframe=   84 fps=9.6 q=30.0 size=     768KiB time=00:00:00.68 bitrate=9207.6kbits/s speed=0.0784x elapsed=0:00:08.71    \nframe=   89 fps=9.6 q=31.0 size=     768KiB time=00:00:00.72 bitrate=8678.4kbits/s speed=0.0782x elapsed=0:00:09.26    \nframe=  100 fps= 10 q=31.0 size=    1024KiB time=00:00:00.80 bitrate=10378.1kbits/s speed=0.0824x elapsed=0:00:09.81    \nframe=  108 fps= 10 q=31.0 size=    1024KiB time=00:00:00.87 bitrate=9587.4kbits/s speed=0.0844x elapsed=0:00:10.36    \nframe=  113 fps= 10 q=31.0 size=    1024KiB time=00:00:00.92 bitrate=9069.2kbits/s speed=0.0848x elapsed=0:00:10.91    \nframe=  124 fps= 11 q=32.0 size=    1280KiB time=00:00:01.01 bitrate=10314.2kbits/s speed=0.0887x elapsed=0:00:11.45    \nframe=  136 fps= 11 q=31.0 size=    1280KiB time=00:00:01.10 bitrate=9532.9kbits/s speed=0.0917x elapsed=0:00:11.99    \nframe=  142 fps= 11 q=32.0 size=    1536KiB time=00:00:01.16 bitrate=10785.7kbits/s speed=0.0931x elapsed=0:00:12.52    \nframe=  163 fps= 12 q=32.0 size=    1792KiB time=00:00:01.25 bitrate=11666.6kbits/s speed=0.0957x elapsed=0:00:13.14    \nframe=  171 fps= 12 q=32.0 size=    1792KiB time=00:00:01.40 bitrate=10424.0kbits/s speed=0.0998x elapsed=0:00:14.10    \nframe=  180 fps= 12 q=32.0 size=    2048KiB time=00:00:01.48 bitrate=11310.7kbits/s speed=0.101x elapsed=0:00:14.61    \nframe=  190 fps= 13 q=32.0 size=    2048KiB time=00:00:01.56 bitrate=10709.1kbits/s speed=0.103x elapsed=0:00:15.16    \nframe=  206 fps= 13 q=33.0 size=    2304KiB time=00:00:01.66 bitrate=11324.8kbits/s speed=0.106x elapsed=0:00:15.69    \nframe=  214 fps= 13 q=33.0 size=    2560KiB time=00:00:01.76 bitrate=11870.9kbits/s speed=0.108x elapsed=0:00:16.33    \nframe=  220 fps= 13 q=33.0 size=    2560KiB time=00:00:01.81 bitrate=11544.2kbits/s speed=0.108x elapsed=0:00:16.86    \nframe=  232 fps= 13 q=33.0 size=    2816KiB time=00:00:01.91 bitrate=12036.0kbits/s speed=0.11x elapsed=0:00:17.42    \nframe=  241 fps= 13 q=33.0 size=    2816KiB time=00:00:01.99 bitrate=11582.8kbits/s speed=0.11x elapsed=0:00:18.06    \nframe=  252 fps= 14 q=33.0 size=    3072KiB time=00:00:02.08 bitrate=12079.8kbits/s speed=0.112x elapsed=0:00:18.56    \nframe=  261 fps= 14 q=33.0 size=    3328KiB time=00:00:02.15 bitrate=12631.7kbits/s speed=0.113x elapsed=0:00:19.08    \nframe=  263 fps= 13 q=33.0 size=    3328KiB time=00:00:02.16 bitrate=12583.1kbits/s speed=0.111x elapsed=0:00:19.59    \nframe=  274 fps= 14 q=33.0 size=    3584KiB time=00:00:02.26 bitrate=12953.2kbits/s speed=0.113x elapsed=0:00:20.12    \nframe=  280 fps= 14 q=34.0 size=    3584KiB time=00:00:02.31 bitrate=12673.6kbits/s speed=0.112x elapsed=0:00:20.64    \nframe=  287 fps= 14 q=34.0 size=    3584KiB time=00:00:02.36 bitrate=12405.8kbits/s speed=0.112x elapsed=0:00:21.16    \nframe=  296 fps= 14 q=34.0 size=    3840KiB time=00:00:02.45 bitrate=12839.9kbits/s speed=0.113x elapsed=0:00:21.68    \nframe=  305 fps= 14 q=34.0 size=    3840KiB time=00:00:02.52 bitrate=12458.5kbits/s speed=0.114x elapsed=0:00:22.22    \nframe=  314 fps= 14 q=34.0 size=    4096KiB time=00:00:02.60 bitrate=12905.7kbits/s speed=0.114x elapsed=0:00:22.75    \nframe=  325 fps= 14 q=34.0 size=    4352KiB time=00:00:02.66 bitrate=13369.5kbits/s speed=0.114x elapsed=0:00:23.29    \nframe=  338 fps= 14 q=35.0 size=    4352KiB time=00:00:02.80 bitrate=12732.8kbits/s speed=0.117x elapsed=0:00:23.93    \nframe=  342 fps= 14 q=35.0 size=    4608KiB time=00:00:02.83 bitrate=13323.2kbits/s speed=0.116x elapsed=0:00:24.44    \nframe=  346 fps= 14 q=35.0 size=    4608KiB time=00:00:02.86 bitrate=13168.3kbits/s speed=0.115x elapsed=0:00:24.96    \nframe=  356 fps= 14 q=35.0 size=    4608KiB time=00:00:02.95 bitrate=12796.3kbits/s speed=0.116x elapsed=0:00:25.48    \nframe=  368 fps= 14 q=35.0 size=    4864KiB time=00:00:03.05 bitrate=13064.4kbits/s speed=0.117x elapsed=0:00:26.05    \nframe=  381 fps= 14 q=35.0 size=    5120KiB time=00:00:03.15 bitrate=13280.2kbits/s speed=0.119x elapsed=0:00:26.65    \nframe=  389 fps= 14 q=35.0 size=    5120KiB time=00:00:03.22 bitrate=13005.7kbits/s speed=0.119x elapsed=0:00:27.17    \nframe=  393 fps= 14 q=36.0 size=    5120KiB time=00:00:03.25 bitrate=12872.7kbits/s speed=0.118x elapsed=0:00:27.67    \nframe=  409 fps= 15 q=36.0 size=    5376KiB time=00:00:03.39 bitrate=12984.9kbits/s speed=0.12x elapsed=0:00:28.19    \nframe=  419 fps= 15 q=36.0 size=    5632KiB time=00:00:03.47 bitrate=13277.0kbits/s speed=0.121x elapsed=0:00:28.71    \nframe=  434 fps= 15 q=36.0 size=    5632KiB time=00:00:03.60 bitrate=12816.0kbits/s speed=0.123x elapsed=0:00:29.22    \nframe=  448 fps= 15 q=37.0 size=    5888KiB time=00:00:03.73 bitrate=12920.1kbits/s speed=0.126x elapsed=0:00:29.74    \nframe=  469 fps= 15 q=36.0 size=    6144KiB time=00:00:03.89 bitrate=12933.3kbits/s speed=0.129x elapsed=0:00:30.26    \nframe=  479 fps= 16 q=36.0 size=    6144KiB time=00:00:03.97 bitrate=12662.1kbits/s speed=0.129x elapsed=0:00:30.77    \nframe=  494 fps= 16 q=35.0 size=    6400KiB time=00:00:04.10 bitrate=12787.6kbits/s speed=0.131x elapsed=0:00:31.28    \nframe=  513 fps= 16 q=35.0 size=    6656KiB time=00:00:04.25 bitrate=12804.6kbits/s speed=0.134x elapsed=0:00:31.80    \nframe=  523 fps= 16 q=35.0 size=    6656KiB time=00:00:04.34 bitrate=12558.8kbits/s speed=0.134x elapsed=0:00:32.31    \nframe=  535 fps= 16 q=35.0 size=    6912KiB time=00:00:04.44 bitrate=12748.3kbits/s speed=0.135x elapsed=0:00:32.83    \nframe=  551 fps= 17 q=35.0 size=    7168KiB time=00:00:04.57 bitrate=12835.1kbits/s speed=0.137x elapsed=0:00:33.36    \nframe=  559 fps= 17 q=35.0 size=    7168KiB time=00:00:04.64 bitrate=12650.8kbits/s speed=0.137x elapsed=0:00:33.86    \nframe=  579 fps= 17 q=35.0 size=    7424KiB time=00:00:04.80 bitrate=12648.4kbits/s speed=0.14x elapsed=0:00:34.37    \n[mp4 @ 00000239c47b9f40] Starting second pass: moving the moov atom to the beginning of the file\n[out#0/mp4 @ 00000239c47b9e40] video:7640KiB audio:0KiB subtitle:0KiB other streams:0KiB global headers:0KiB muxing overhead: 0.101070%\nframe=  600 fps= 17 q=-1.0 Lsize=    7648KiB time=00:00:04.98 bitrate=12571.8kbits/s speed=0.143x elapsed=0:00:34.76    \n[libx264 @ 00000239c47bcec0] frame I:3     Avg QP:28.17  size: 98861\n[libx264 @ 00000239c47bcec0] frame P:188   Avg QP:30.39  size: 23733\n[libx264 @ 00000239c47bcec0] frame B:409   Avg QP:33.78  size:  7492\n[libx264 @ 00000239c47bcec0] consecutive B-frames:  1.7% 16.7% 17.0% 64.7%\n[libx264 @ 00000239c47bcec0] mb I  I16..4: 17.2% 66.1% 16.6%\n[libx264 @ 00000239c47bcec0] mb P  I16..4:  0.7%  5.4%  0.6%  P16..4: 30.3%  8.9%  4.6%  0.0%  0.0%    skip:49.5%\n[libx264 @ 00000239c47bcec0] mb B  I16..4:  0.0%  0.3%  0.0%  B16..8: 34.3%  3.9%  0.8%  direct: 1.0%  skip:59.7%  L0:41.1% L1:55.7% BI: 3.3%\n[libx264 @ 00000239c47bcec0] 8x8 transform intra:78.0% inter:77.6%\n[libx264 @ 00000239c47bcec0] direct mvs  spatial:97.6% temporal:2.4%\n[libx264 @ 00000239c47bcec0] coded y,uvDC,uvAC intra: 67.6% 64.6% 28.8% inter: 6.7% 6.2% 0.3%\n[libx264 @ 00000239c47bcec0] i16 v,h,dc,p: 42% 37%  5% 16%\n[libx264 @ 00000239c47bcec0] i8 v,h,dc,ddl,ddr,vr,hd,vl,hu: 13% 10%  6%  8% 15% 14% 15%  9% 10%\n[libx264 @ 00000239c47bcec0] i4 v,h,dc,ddl,ddr,vr,hd,vl,hu: 19% 13%  5%  7% 13% 13% 12%  8% 10%\n[libx264 @ 00000239c47bcec0] i8c dc,h,v,p: 38% 26% 21% 15%\n[libx264 @ 00000239c47bcec0] Weighted P-Frames: Y:0.0% UV:0.0%\n[libx264 @ 00000239c47bcec0] ref P L0: 60.0% 19.6% 10.7%  4.5%  5.0%  0.2%\n[libx264 @ 00000239c47bcec0] ref B L0: 92.3%  5.1%  2.1%  0.6%\n[libx264 @ 00000239c47bcec0] ref B L1: 98.5%  1.5%\n[libx264 @ 00000239c47bcec0] kb/s:12515.99\n",
  "seconds": 35.395488023757935,
  "probe_out": {}
}